# xmcd
#
# Track frame offsets: 
#        150
#        13225
#        27069
#        37999
#        48391
#        67308
#        84674
#        94486
#        107677
#        120532
#        138987
#        149666
#        166086
#        179039
#        193487
#        207865
#        229681
#        244594
#        258375
#
# Disc length: 3605 seconds
#
# Revision: 4
# Processed by: cddbd v1.5.2PL0 Copyright (c) Steve Scherf et al.
# Submitted via: ExactAudioCopy v0.99pb3
#
DISCID=190e1313
DTITLE=Various Artist - Country Show Down - CD 2
DYEAR=1900
DGENRE=Country
TTITLE0=Kenny Rogers - Ruby, Don't Take Your Love To Town
TTITLE1=J. Cash, W. Jennings, W. Nelson and K. Kristofferson - Highwayma
TTITLE1=n
TTITLE2=Willie Nelson - Hello Walls
TTITLE3=Chet Atkins - Mr. Sandman
TTITLE4=John Denver - Rocky Mountain High
TTITLE5=Dr. Hook/Sylvia's Mother 
TTITLE6=Loretta Lynn - Trouble In Paradise
TTITLE7=Merle Haggard - Okie From Muskogee
TTITLE8=Patsy Cline - I Fall To Pieces
TTITLE9=Randy Travis - Hard Rock Bottom Of Your Heart
TTITLE10=Jim Reeves - He'll Have To Go
TTITLE11=Debbie Boone - You Light Up My Life
TTITLE12=Eddy Arnold - I Really Don't Want To Know
TTITLE13=Tanya Tucker - What's Your Mama's Name
TTITLE14=Hal Ketchum - I Saw The Light
TTITLE15=Tim McGraw - Everywhere
TTITLE16=Bellamy Brothers - Let Your Love Flow
TTITLE17=Waylon Jennings - Good Hearted Woman
TTITLE18=Wanda Jackson - Stand By Your Man
EXTD=
EXTT0=
EXTT1=
EXTT2=
EXTT3=
EXTT4=
EXTT5=
EXTT6=
EXTT7=
EXTT8=
EXTT9=
EXTT10=
EXTT11=
EXTT12=
EXTT13=
EXTT14=
EXTT15=
EXTT16=
EXTT17=
EXTT18=
PLAYORDER=
